<?xml version="1.0" encoding="UTF-8" standalone="no"?>
<!DOCTYPE svg PUBLIC "-//W3C//DTD SVG 1.1//EN"
 "http://www.w3.org/Graphics/SVG/1.1/DTD/svg11.dtd">
<!-- Generated by graphviz version 2.46.0 (20210118.1747)
 -->
<!-- Title: dependency&#45;cruiser output Pages: 1 -->
<svg width="302pt" height="530pt"
 viewBox="0.00 0.00 302.00 530.00" xmlns="http://www.w3.org/2000/svg" xmlns:xlink="http://www.w3.org/1999/xlink">
<g id="graph0" class="graph" transform="scale(1 1) rotate(0) translate(4 526)">
<title>dependency&#45;cruiser output</title>
<polygon fill="white" stroke="transparent" points="-4,4 -4,-526 298,-526 298,4 -4,4"/>
<g id="clust1" class="cluster">
<title>cluster_build</title>
<path fill="#ffffff" stroke="black" stroke-width="2" d="M20,-8C20,-8 274,-8 274,-8 280,-8 286,-14 286,-20 286,-20 286,-502 286,-502 286,-508 280,-514 274,-514 274,-514 20,-514 20,-514 14,-514 8,-508 8,-502 8,-502 8,-20 8,-20 8,-14 14,-8 20,-8"/>
<text text-anchor="middle" x="147" y="-502.8" font-family="Helvetica,sans-Serif" font-weight="bold" font-size="9.00">build</text>
</g>
<g id="clust2" class="cluster">
<title>cluster_build/static</title>
<path fill="#ffffff" stroke="black" stroke-width="2" d="M81,-72C81,-72 213,-72 213,-72 219,-72 225,-78 225,-84 225,-84 225,-476 225,-476 225,-482 219,-488 213,-488 213,-488 81,-488 81,-488 75,-488 69,-482 69,-476 69,-476 69,-84 69,-84 69,-78 75,-72 81,-72"/>
<text text-anchor="middle" x="147" y="-476.8" font-family="Helvetica,sans-Serif" font-weight="bold" font-size="9.00">static</text>
</g>
<g id="clust3" class="cluster">
<title>cluster_build/static/js</title>
<path fill="#ffffff" stroke="black" stroke-width="2" d="M89,-80C89,-80 205,-80 205,-80 211,-80 217,-86 217,-92 217,-92 217,-450 217,-450 217,-456 211,-462 205,-462 205,-462 89,-462 89,-462 83,-462 77,-456 77,-450 77,-450 77,-92 77,-92 77,-86 83,-80 89,-80"/>
<text text-anchor="middle" x="147" y="-450.8" font-family="Helvetica,sans-Serif" font-weight="bold" font-size="9.00">js</text>
</g>
<!-- build/precache&#45;manifest.760c88952b1f1932d3727f5fde0b678a.js -->
<g id="node1" class="node">
<title>build/precache&#45;manifest.760c88952b1f1932d3727f5fde0b678a.js</title>
<g id="a_node1"><a xlink:href="build/precache-manifest.760c88952b1f1932d3727f5fde0b678a.js" xlink:title="precache&#45;manifest.760c88952b1f1932d3727f5fde0b678a.js">
<path fill="#ccffcc" stroke="black" d="M272,-64C272,-64 22,-64 22,-64 19,-64 16,-61 16,-58 16,-58 16,-52 16,-52 16,-49 19,-46 22,-46 22,-46 272,-46 272,-46 275,-46 278,-49 278,-52 278,-52 278,-58 278,-58 278,-61 275,-64 272,-64"/>
<text text-anchor="middle" x="147" y="-52.8" font-family="Helvetica,sans-Serif" font-size="9.00">precache&#45;manifest.760c88952b1f1932d3727f5fde0b678a.js</text>
</a>
</g>
</g>
<!-- build/service&#45;worker.js -->
<g id="node2" class="node">
<title>build/service&#45;worker.js</title>
<g id="a_node2"><a xlink:href="build/service-worker.js" xlink:title="service&#45;worker.js">
<path fill="#ccffcc" stroke="black" d="M184,-34C184,-34 110,-34 110,-34 107,-34 104,-31 104,-28 104,-28 104,-22 104,-22 104,-19 107,-16 110,-16 110,-16 184,-16 184,-16 187,-16 190,-19 190,-22 190,-22 190,-28 190,-28 190,-31 187,-34 184,-34"/>
<text text-anchor="middle" x="147" y="-22.8" font-family="Helvetica,sans-Serif" font-size="9.00">service&#45;worker.js</text>
</a>
</g>
</g>
<!-- build/static/js/0.68f77d70.chunk.js -->
<g id="node3" class="node">
<title>build/static/js/0.68f77d70.chunk.js</title>
<g id="a_node3"><a xlink:href="build/static/js/0.68f77d70.chunk.js" xlink:title="0.68f77d70.chunk.js">
<path fill="#ccffcc" stroke="black" d="M190.5,-436C190.5,-436 103.5,-436 103.5,-436 100.5,-436 97.5,-433 97.5,-430 97.5,-430 97.5,-424 97.5,-424 97.5,-421 100.5,-418 103.5,-418 103.5,-418 190.5,-418 190.5,-418 193.5,-418 196.5,-421 196.5,-424 196.5,-424 196.5,-430 196.5,-430 196.5,-433 193.5,-436 190.5,-436"/>
<text text-anchor="middle" x="147" y="-424.8" font-family="Helvetica,sans-Serif" font-size="9.00">0.68f77d70.chunk.js</text>
</a>
</g>
</g>
<!-- build/static/js/1.98a43923.chunk.js -->
<g id="node4" class="node">
<title>build/static/js/1.98a43923.chunk.js</title>
<g id="a_node4"><a xlink:href="build/static/js/1.98a43923.chunk.js" xlink:title="1.98a43923.chunk.js">
<path fill="#ccffcc" stroke="black" d="M192,-406C192,-406 102,-406 102,-406 99,-406 96,-403 96,-400 96,-400 96,-394 96,-394 96,-391 99,-388 102,-388 102,-388 192,-388 192,-388 195,-388 198,-391 198,-394 198,-394 198,-400 198,-400 198,-403 195,-406 192,-406"/>
<text text-anchor="middle" x="147" y="-394.8" font-family="Helvetica,sans-Serif" font-size="9.00">1.98a43923.chunk.js</text>
</a>
</g>
</g>
<!-- build/static/js/10.b9e36d39.chunk.js -->
<g id="node5" class="node">
<title>build/static/js/10.b9e36d39.chunk.js</title>
<g id="a_node5"><a xlink:href="build/static/js/10.b9e36d39.chunk.js" xlink:title="10.b9e36d39.chunk.js">
<path fill="#ccffcc" stroke="black" d="M194.5,-376C194.5,-376 99.5,-376 99.5,-376 96.5,-376 93.5,-373 93.5,-370 93.5,-370 93.5,-364 93.5,-364 93.5,-361 96.5,-358 99.5,-358 99.5,-358 194.5,-358 194.5,-358 197.5,-358 200.5,-361 200.5,-364 200.5,-364 200.5,-370 200.5,-370 200.5,-373 197.5,-376 194.5,-376"/>
<text text-anchor="middle" x="147" y="-364.8" font-family="Helvetica,sans-Serif" font-size="9.00">10.b9e36d39.chunk.js</text>
</a>
</g>
</g>
<!-- build/static/js/11.791318c2.chunk.js -->
<g id="node6" class="node">
<title>build/static/js/11.791318c2.chunk.js</title>
<g id="a_node6"><a xlink:href="build/static/js/11.791318c2.chunk.js" xlink:title="11.791318c2.chunk.js">
<path fill="#ccffcc" stroke="black" d="M193.5,-346C193.5,-346 100.5,-346 100.5,-346 97.5,-346 94.5,-343 94.5,-340 94.5,-340 94.5,-334 94.5,-334 94.5,-331 97.5,-328 100.5,-328 100.5,-328 193.5,-328 193.5,-328 196.5,-328 199.5,-331 199.5,-334 199.5,-334 199.5,-340 199.5,-340 199.5,-343 196.5,-346 193.5,-346"/>
<text text-anchor="middle" x="147" y="-334.8" font-family="Helvetica,sans-Serif" font-size="9.00">11.791318c2.chunk.js</text>
</a>
</g>
</g>
<!-- build/static/js/4.c5cb4791.chunk.js -->
<g id="node7" class="node">
<title>build/static/js/4.c5cb4791.chunk.js</title>
<g id="a_node7"><a xlink:href="build/static/js/4.c5cb4791.chunk.js" xlink:title="4.c5cb4791.chunk.js">
<path fill="#ccffcc" stroke="black" d="M191.5,-316C191.5,-316 102.5,-316 102.5,-316 99.5,-316 96.5,-313 96.5,-310 96.5,-310 96.5,-304 96.5,-304 96.5,-301 99.5,-298 102.5,-298 102.5,-298 191.5,-298 191.5,-298 194.5,-298 197.5,-301 197.5,-304 197.5,-304 197.5,-310 197.5,-310 197.5,-313 194.5,-316 191.5,-316"/>
<text text-anchor="middle" x="147" y="-304.8" font-family="Helvetica,sans-Serif" font-size="9.00">4.c5cb4791.chunk.js</text>
</a>
</g>
</g>
<!-- build/static/js/5.a2c32a33.chunk.js -->
<g id="node8" class="node">
<title>build/static/js/5.a2c32a33.chunk.js</title>
<g id="a_node8"><a xlink:href="build/static/js/5.a2c32a33.chunk.js" xlink:title="5.a2c32a33.chunk.js">
<path fill="#ccffcc" stroke="black" d="M191.5,-286C191.5,-286 102.5,-286 102.5,-286 99.5,-286 96.5,-283 96.5,-280 96.5,-280 96.5,-274 96.5,-274 96.5,-271 99.5,-268 102.5,-268 102.5,-268 191.5,-268 191.5,-268 194.5,-268 197.5,-271 197.5,-274 197.5,-274 197.5,-280 197.5,-280 197.5,-283 194.5,-286 191.5,-286"/>
<text text-anchor="middle" x="147" y="-274.8" font-family="Helvetica,sans-Serif" font-size="9.00">5.a2c32a33.chunk.js</text>
</a>
</g>
</g>
<!-- build/static/js/6.99565689.chunk.js -->
<g id="node9" class="node">
<title>build/static/js/6.99565689.chunk.js</title>
<g id="a_node9"><a xlink:href="build/static/js/6.99565689.chunk.js" xlink:title="6.99565689.chunk.js">
<path fill="#ccffcc" stroke="black" d="M192,-256C192,-256 102,-256 102,-256 99,-256 96,-253 96,-250 96,-250 96,-244 96,-244 96,-241 99,-238 102,-238 102,-238 192,-238 192,-238 195,-238 198,-241 198,-244 198,-244 198,-250 198,-250 198,-253 195,-256 192,-256"/>
<text text-anchor="middle" x="147" y="-244.8" font-family="Helvetica,sans-Serif" font-size="9.00">6.99565689.chunk.js</text>
</a>
</g>
</g>
<!-- build/static/js/7.ba12c0e5.chunk.js -->
<g id="node10" class="node">
<title>build/static/js/7.ba12c0e5.chunk.js</title>
<g id="a_node10"><a xlink:href="build/static/js/7.ba12c0e5.chunk.js" xlink:title="7.ba12c0e5.chunk.js">
<path fill="#ccffcc" stroke="black" d="M191.5,-226C191.5,-226 102.5,-226 102.5,-226 99.5,-226 96.5,-223 96.5,-220 96.5,-220 96.5,-214 96.5,-214 96.5,-211 99.5,-208 102.5,-208 102.5,-208 191.5,-208 191.5,-208 194.5,-208 197.5,-211 197.5,-214 197.5,-214 197.5,-220 197.5,-220 197.5,-223 194.5,-226 191.5,-226"/>
<text text-anchor="middle" x="147" y="-214.8" font-family="Helvetica,sans-Serif" font-size="9.00">7.ba12c0e5.chunk.js</text>
</a>
</g>
</g>
<!-- build/static/js/8.6eeae593.chunk.js -->
<g id="node11" class="node">
<title>build/static/js/8.6eeae593.chunk.js</title>
<g id="a_node11"><a xlink:href="build/static/js/8.6eeae593.chunk.js" xlink:title="8.6eeae593.chunk.js">
<path fill="#ccffcc" stroke="black" d="M192,-196C192,-196 102,-196 102,-196 99,-196 96,-193 96,-190 96,-190 96,-184 96,-184 96,-181 99,-178 102,-178 102,-178 192,-178 192,-178 195,-178 198,-181 198,-184 198,-184 198,-190 198,-190 198,-193 195,-196 192,-196"/>
<text text-anchor="middle" x="147" y="-184.8" font-family="Helvetica,sans-Serif" font-size="9.00">8.6eeae593.chunk.js</text>
</a>
</g>
</g>
<!-- build/static/js/9.4657ec44.chunk.js -->
<g id="node12" class="node">
<title>build/static/js/9.4657ec44.chunk.js</title>
<g id="a_node12"><a xlink:href="build/static/js/9.4657ec44.chunk.js" xlink:title="9.4657ec44.chunk.js">
<path fill="#ccffcc" stroke="black" d="M191.5,-166C191.5,-166 102.5,-166 102.5,-166 99.5,-166 96.5,-163 96.5,-160 96.5,-160 96.5,-154 96.5,-154 96.5,-151 99.5,-148 102.5,-148 102.5,-148 191.5,-148 191.5,-148 194.5,-148 197.5,-151 197.5,-154 197.5,-154 197.5,-160 197.5,-160 197.5,-163 194.5,-166 191.5,-166"/>
<text text-anchor="middle" x="147" y="-154.8" font-family="Helvetica,sans-Serif" font-size="9.00">9.4657ec44.chunk.js</text>
</a>
</g>
</g>
<!-- build/static/js/main.27506a01.chunk.js -->
<g id="node13" class="node">
<title>build/static/js/main.27506a01.chunk.js</title>
<g id="a_node13"><a xlink:href="build/static/js/main.27506a01.chunk.js" xlink:title="main.27506a01.chunk.js">
<path fill="#ccffcc" stroke="black" d="M199.5,-136C199.5,-136 94.5,-136 94.5,-136 91.5,-136 88.5,-133 88.5,-130 88.5,-130 88.5,-124 88.5,-124 88.5,-121 91.5,-118 94.5,-118 94.5,-118 199.5,-118 199.5,-118 202.5,-118 205.5,-121 205.5,-124 205.5,-124 205.5,-130 205.5,-130 205.5,-133 202.5,-136 199.5,-136"/>
<text text-anchor="middle" x="147" y="-124.8" font-family="Helvetica,sans-Serif" font-size="9.00">main.27506a01.chunk.js</text>
</a>
</g>
</g>
<!-- build/static/js/runtime&#45;main.54068d55.js -->
<g id="node14" class="node">
<title>build/static/js/runtime&#45;main.54068d55.js</title>
<g id="a_node14"><a xlink:href="build/static/js/runtime-main.54068d55.js" xlink:title="runtime&#45;main.54068d55.js">
<path fill="#ccffcc" stroke="black" d="M203,-106C203,-106 91,-106 91,-106 88,-106 85,-103 85,-100 85,-100 85,-94 85,-94 85,-91 88,-88 91,-88 91,-88 203,-88 203,-88 206,-88 209,-91 209,-94 209,-94 209,-100 209,-100 209,-103 206,-106 203,-106"/>
<text text-anchor="middle" x="147" y="-94.8" font-family="Helvetica,sans-Serif" font-size="9.00">runtime&#45;main.54068d55.js</text>
</a>
</g>
</g>
</g>
</svg>
