<?xml version="1.0" encoding="UTF-8" standalone="no"?>
<!DOCTYPE svg PUBLIC "-//W3C//DTD SVG 1.1//EN"
 "http://www.w3.org/Graphics/SVG/1.1/DTD/svg11.dtd">
<!-- Generated by graphviz version 2.46.0 (20210118.1747)
 -->
<!-- Title: dependency&#45;cruiser output Pages: 1 -->
<svg width="308pt" height="560pt"
 viewBox="0.00 0.00 308.00 560.00" xmlns="http://www.w3.org/2000/svg" xmlns:xlink="http://www.w3.org/1999/xlink">
<g id="graph0" class="graph" transform="scale(1 1) rotate(0) translate(4 556)">
<title>dependency&#45;cruiser output</title>
<polygon fill="white" stroke="transparent" points="-4,4 -4,-556 304,-556 304,4 -4,4"/>
<g id="clust1" class="cluster">
<title>cluster_build</title>
<path fill="#ffffff" stroke="black" stroke-width="2" d="M20,-8C20,-8 280,-8 280,-8 286,-8 292,-14 292,-20 292,-20 292,-532 292,-532 292,-538 286,-544 280,-544 280,-544 20,-544 20,-544 14,-544 8,-538 8,-532 8,-532 8,-20 8,-20 8,-14 14,-8 20,-8"/>
<text text-anchor="middle" x="150" y="-532.8" font-family="Helvetica,sans-Serif" font-weight="bold" font-size="9.00">build</text>
</g>
<g id="clust2" class="cluster">
<title>cluster_build/static</title>
<path fill="#ffffff" stroke="black" stroke-width="2" d="M84.5,-72C84.5,-72 215.5,-72 215.5,-72 221.5,-72 227.5,-78 227.5,-84 227.5,-84 227.5,-506 227.5,-506 227.5,-512 221.5,-518 215.5,-518 215.5,-518 84.5,-518 84.5,-518 78.5,-518 72.5,-512 72.5,-506 72.5,-506 72.5,-84 72.5,-84 72.5,-78 78.5,-72 84.5,-72"/>
<text text-anchor="middle" x="150" y="-506.8" font-family="Helvetica,sans-Serif" font-weight="bold" font-size="9.00">static</text>
</g>
<g id="clust3" class="cluster">
<title>cluster_build/static/js</title>
<path fill="#ffffff" stroke="black" stroke-width="2" d="M92.5,-80C92.5,-80 207.5,-80 207.5,-80 213.5,-80 219.5,-86 219.5,-92 219.5,-92 219.5,-480 219.5,-480 219.5,-486 213.5,-492 207.5,-492 207.5,-492 92.5,-492 92.5,-492 86.5,-492 80.5,-486 80.5,-480 80.5,-480 80.5,-92 80.5,-92 80.5,-86 86.5,-80 92.5,-80"/>
<text text-anchor="middle" x="150" y="-480.8" font-family="Helvetica,sans-Serif" font-weight="bold" font-size="9.00">js</text>
</g>
<!-- build/precache&#45;manifest.532d871d3c96b951bf014b83dd324b12.js -->
<g id="node1" class="node">
<title>build/precache&#45;manifest.532d871d3c96b951bf014b83dd324b12.js</title>
<g id="a_node1"><a xlink:href="build/precache-manifest.532d871d3c96b951bf014b83dd324b12.js" xlink:title="precache&#45;manifest.532d871d3c96b951bf014b83dd324b12.js">
<path fill="#ccffcc" stroke="black" d="M278,-64C278,-64 22,-64 22,-64 19,-64 16,-61 16,-58 16,-58 16,-52 16,-52 16,-49 19,-46 22,-46 22,-46 278,-46 278,-46 281,-46 284,-49 284,-52 284,-52 284,-58 284,-58 284,-61 281,-64 278,-64"/>
<text text-anchor="middle" x="150" y="-52.8" font-family="Helvetica,sans-Serif" font-size="9.00">precache&#45;manifest.532d871d3c96b951bf014b83dd324b12.js</text>
</a>
</g>
</g>
<!-- build/service&#45;worker.js -->
<g id="node2" class="node">
<title>build/service&#45;worker.js</title>
<g id="a_node2"><a xlink:href="build/service-worker.js" xlink:title="service&#45;worker.js">
<path fill="#ccffcc" stroke="black" d="M187,-34C187,-34 113,-34 113,-34 110,-34 107,-31 107,-28 107,-28 107,-22 107,-22 107,-19 110,-16 113,-16 113,-16 187,-16 187,-16 190,-16 193,-19 193,-22 193,-22 193,-28 193,-28 193,-31 190,-34 187,-34"/>
<text text-anchor="middle" x="150" y="-22.8" font-family="Helvetica,sans-Serif" font-size="9.00">service&#45;worker.js</text>
</a>
</g>
</g>
<!-- build/static/js/0.9e24e6ea.chunk.js -->
<g id="node3" class="node">
<title>build/static/js/0.9e24e6ea.chunk.js</title>
<g id="a_node3"><a xlink:href="build/static/js/0.9e24e6ea.chunk.js" xlink:title="0.9e24e6ea.chunk.js">
<path fill="#ccffcc" stroke="black" d="M195,-466C195,-466 105,-466 105,-466 102,-466 99,-463 99,-460 99,-460 99,-454 99,-454 99,-451 102,-448 105,-448 105,-448 195,-448 195,-448 198,-448 201,-451 201,-454 201,-454 201,-460 201,-460 201,-463 198,-466 195,-466"/>
<text text-anchor="middle" x="150" y="-454.8" font-family="Helvetica,sans-Serif" font-size="9.00">0.9e24e6ea.chunk.js</text>
</a>
</g>
</g>
<!-- build/static/js/1.cded287f.chunk.js -->
<g id="node4" class="node">
<title>build/static/js/1.cded287f.chunk.js</title>
<g id="a_node4"><a xlink:href="build/static/js/1.cded287f.chunk.js" xlink:title="1.cded287f.chunk.js">
<path fill="#ccffcc" stroke="black" d="M193,-436C193,-436 107,-436 107,-436 104,-436 101,-433 101,-430 101,-430 101,-424 101,-424 101,-421 104,-418 107,-418 107,-418 193,-418 193,-418 196,-418 199,-421 199,-424 199,-424 199,-430 199,-430 199,-433 196,-436 193,-436"/>
<text text-anchor="middle" x="150" y="-424.8" font-family="Helvetica,sans-Serif" font-size="9.00">1.cded287f.chunk.js</text>
</a>
</g>
</g>
<!-- build/static/js/10.35cff923.chunk.js -->
<g id="node5" class="node">
<title>build/static/js/10.35cff923.chunk.js</title>
<g id="a_node5"><a xlink:href="build/static/js/10.35cff923.chunk.js" xlink:title="10.35cff923.chunk.js">
<path fill="#ccffcc" stroke="black" d="M194.5,-406C194.5,-406 105.5,-406 105.5,-406 102.5,-406 99.5,-403 99.5,-400 99.5,-400 99.5,-394 99.5,-394 99.5,-391 102.5,-388 105.5,-388 105.5,-388 194.5,-388 194.5,-388 197.5,-388 200.5,-391 200.5,-394 200.5,-394 200.5,-400 200.5,-400 200.5,-403 197.5,-406 194.5,-406"/>
<text text-anchor="middle" x="150" y="-394.8" font-family="Helvetica,sans-Serif" font-size="9.00">10.35cff923.chunk.js</text>
</a>
</g>
</g>
<!-- build/static/js/11.8badda12.chunk.js -->
<g id="node6" class="node">
<title>build/static/js/11.8badda12.chunk.js</title>
<g id="a_node6"><a xlink:href="build/static/js/11.8badda12.chunk.js" xlink:title="11.8badda12.chunk.js">
<path fill="#ccffcc" stroke="black" d="M197,-376C197,-376 103,-376 103,-376 100,-376 97,-373 97,-370 97,-370 97,-364 97,-364 97,-361 100,-358 103,-358 103,-358 197,-358 197,-358 200,-358 203,-361 203,-364 203,-364 203,-370 203,-370 203,-373 200,-376 197,-376"/>
<text text-anchor="middle" x="150" y="-364.8" font-family="Helvetica,sans-Serif" font-size="9.00">11.8badda12.chunk.js</text>
</a>
</g>
</g>
<!-- build/static/js/12.d1cb8430.chunk.js -->
<g id="node7" class="node">
<title>build/static/js/12.d1cb8430.chunk.js</title>
<g id="a_node7"><a xlink:href="build/static/js/12.d1cb8430.chunk.js" xlink:title="12.d1cb8430.chunk.js">
<path fill="#ccffcc" stroke="black" d="M197.5,-346C197.5,-346 102.5,-346 102.5,-346 99.5,-346 96.5,-343 96.5,-340 96.5,-340 96.5,-334 96.5,-334 96.5,-331 99.5,-328 102.5,-328 102.5,-328 197.5,-328 197.5,-328 200.5,-328 203.5,-331 203.5,-334 203.5,-334 203.5,-340 203.5,-340 203.5,-343 200.5,-346 197.5,-346"/>
<text text-anchor="middle" x="150" y="-334.8" font-family="Helvetica,sans-Serif" font-size="9.00">12.d1cb8430.chunk.js</text>
</a>
</g>
</g>
<!-- build/static/js/4.eb162be5.chunk.js -->
<g id="node8" class="node">
<title>build/static/js/4.eb162be5.chunk.js</title>
<g id="a_node8"><a xlink:href="build/static/js/4.eb162be5.chunk.js" xlink:title="4.eb162be5.chunk.js">
<path fill="#ccffcc" stroke="black" d="M195,-316C195,-316 105,-316 105,-316 102,-316 99,-313 99,-310 99,-310 99,-304 99,-304 99,-301 102,-298 105,-298 105,-298 195,-298 195,-298 198,-298 201,-301 201,-304 201,-304 201,-310 201,-310 201,-313 198,-316 195,-316"/>
<text text-anchor="middle" x="150" y="-304.8" font-family="Helvetica,sans-Serif" font-size="9.00">4.eb162be5.chunk.js</text>
</a>
</g>
</g>
<!-- build/static/js/5.f7131c9d.chunk.js -->
<g id="node9" class="node">
<title>build/static/js/5.f7131c9d.chunk.js</title>
<g id="a_node9"><a xlink:href="build/static/js/5.f7131c9d.chunk.js" xlink:title="5.f7131c9d.chunk.js">
<path fill="#ccffcc" stroke="black" d="M193,-286C193,-286 107,-286 107,-286 104,-286 101,-283 101,-280 101,-280 101,-274 101,-274 101,-271 104,-268 107,-268 107,-268 193,-268 193,-268 196,-268 199,-271 199,-274 199,-274 199,-280 199,-280 199,-283 196,-286 193,-286"/>
<text text-anchor="middle" x="150" y="-274.8" font-family="Helvetica,sans-Serif" font-size="9.00">5.f7131c9d.chunk.js</text>
</a>
</g>
</g>
<!-- build/static/js/6.cf65e591.chunk.js -->
<g id="node10" class="node">
<title>build/static/js/6.cf65e591.chunk.js</title>
<g id="a_node10"><a xlink:href="build/static/js/6.cf65e591.chunk.js" xlink:title="6.cf65e591.chunk.js">
<path fill="#ccffcc" stroke="black" d="M193,-256C193,-256 107,-256 107,-256 104,-256 101,-253 101,-250 101,-250 101,-244 101,-244 101,-241 104,-238 107,-238 107,-238 193,-238 193,-238 196,-238 199,-241 199,-244 199,-244 199,-250 199,-250 199,-253 196,-256 193,-256"/>
<text text-anchor="middle" x="150" y="-244.8" font-family="Helvetica,sans-Serif" font-size="9.00">6.cf65e591.chunk.js</text>
</a>
</g>
</g>
<!-- build/static/js/7.b3042f03.chunk.js -->
<g id="node11" class="node">
<title>build/static/js/7.b3042f03.chunk.js</title>
<g id="a_node11"><a xlink:href="build/static/js/7.b3042f03.chunk.js" xlink:title="7.b3042f03.chunk.js">
<path fill="#ccffcc" stroke="black" d="M193.5,-226C193.5,-226 106.5,-226 106.5,-226 103.5,-226 100.5,-223 100.5,-220 100.5,-220 100.5,-214 100.5,-214 100.5,-211 103.5,-208 106.5,-208 106.5,-208 193.5,-208 193.5,-208 196.5,-208 199.5,-211 199.5,-214 199.5,-214 199.5,-220 199.5,-220 199.5,-223 196.5,-226 193.5,-226"/>
<text text-anchor="middle" x="150" y="-214.8" font-family="Helvetica,sans-Serif" font-size="9.00">7.b3042f03.chunk.js</text>
</a>
</g>
</g>
<!-- build/static/js/8.18d789b6.chunk.js -->
<g id="node12" class="node">
<title>build/static/js/8.18d789b6.chunk.js</title>
<g id="a_node12"><a xlink:href="build/static/js/8.18d789b6.chunk.js" xlink:title="8.18d789b6.chunk.js">
<path fill="#ccffcc" stroke="black" d="M195,-196C195,-196 105,-196 105,-196 102,-196 99,-193 99,-190 99,-190 99,-184 99,-184 99,-181 102,-178 105,-178 105,-178 195,-178 195,-178 198,-178 201,-181 201,-184 201,-184 201,-190 201,-190 201,-193 198,-196 195,-196"/>
<text text-anchor="middle" x="150" y="-184.8" font-family="Helvetica,sans-Serif" font-size="9.00">8.18d789b6.chunk.js</text>
</a>
</g>
</g>
<!-- build/static/js/9.b74a3ace.chunk.js -->
<g id="node13" class="node">
<title>build/static/js/9.b74a3ace.chunk.js</title>
<g id="a_node13"><a xlink:href="build/static/js/9.b74a3ace.chunk.js" xlink:title="9.b74a3ace.chunk.js">
<path fill="#ccffcc" stroke="black" d="M194.5,-166C194.5,-166 105.5,-166 105.5,-166 102.5,-166 99.5,-163 99.5,-160 99.5,-160 99.5,-154 99.5,-154 99.5,-151 102.5,-148 105.5,-148 105.5,-148 194.5,-148 194.5,-148 197.5,-148 200.5,-151 200.5,-154 200.5,-154 200.5,-160 200.5,-160 200.5,-163 197.5,-166 194.5,-166"/>
<text text-anchor="middle" x="150" y="-154.8" font-family="Helvetica,sans-Serif" font-size="9.00">9.b74a3ace.chunk.js</text>
</a>
</g>
</g>
<!-- build/static/js/main.3343424c.chunk.js -->
<g id="node14" class="node">
<title>build/static/js/main.3343424c.chunk.js</title>
<g id="a_node14"><a xlink:href="build/static/js/main.3343424c.chunk.js" xlink:title="main.3343424c.chunk.js">
<path fill="#ccffcc" stroke="black" d="M202,-136C202,-136 98,-136 98,-136 95,-136 92,-133 92,-130 92,-130 92,-124 92,-124 92,-121 95,-118 98,-118 98,-118 202,-118 202,-118 205,-118 208,-121 208,-124 208,-124 208,-130 208,-130 208,-133 205,-136 202,-136"/>
<text text-anchor="middle" x="150" y="-124.8" font-family="Helvetica,sans-Serif" font-size="9.00">main.3343424c.chunk.js</text>
</a>
</g>
</g>
<!-- build/static/js/runtime&#45;main.ec5d3721.js -->
<g id="node15" class="node">
<title>build/static/js/runtime&#45;main.ec5d3721.js</title>
<g id="a_node15"><a xlink:href="build/static/js/runtime-main.ec5d3721.js" xlink:title="runtime&#45;main.ec5d3721.js">
<path fill="#ccffcc" stroke="black" d="M205.5,-106C205.5,-106 94.5,-106 94.5,-106 91.5,-106 88.5,-103 88.5,-100 88.5,-100 88.5,-94 88.5,-94 88.5,-91 91.5,-88 94.5,-88 94.5,-88 205.5,-88 205.5,-88 208.5,-88 211.5,-91 211.5,-94 211.5,-94 211.5,-100 211.5,-100 211.5,-103 208.5,-106 205.5,-106"/>
<text text-anchor="middle" x="150" y="-94.8" font-family="Helvetica,sans-Serif" font-size="9.00">runtime&#45;main.ec5d3721.js</text>
</a>
</g>
</g>
</g>
</svg>
